# xmcd CD database file
#
# Track frame offsets:
#	150
#	18273
#	37988
#	58375
#	71063
#	86795
#	130110
#	145825
#	162090
#	191583
#	204558
#	235178
#
# Disc length: 3389 seconds
#
# Revision: 0
# Processed by: cddbd v1.4PL0 Copyright (c) Steve Scherf et al.
# Submitted via: CDex 1.40PlusFr
#
DISCID=a70d3b0c
DTITLE=Benoit Blue Boy - Couvert de bleus
DYEAR=1994
DGENRE=Blues
TTITLE0=idiot ou bien cretin
TTITLE1=le blues au bout de mon lit
TTITLE2=j'vais appeller mont boulot
TTITLE3=le gros lot
TTITLE4=changé d'avis
TTITLE5=le blues de laker
TTITLE6=descendre au café
TTITLE7=la boum avero
TTITLE8=le p'tit nuage
TTITLE9=dans la vie y'a pas qu'largent
TTITLE10=y'a quelqu'un qu'a parlé
TTITLE11=le ciel et violet
EXTD=YEAR: 1994 ID3G: 0
EXTT0=
EXTT1=
EXTT2=
EXTT3=
EXTT4=
EXTT5=
EXTT6=
EXTT7=
EXTT8=
EXTT9=
EXTT10=
EXTT11=
PLAYORDER=
